<svg width="92" height="88" viewBox="0 0 92 88" fill="none" xmlns="http://www.w3.org/2000/svg">
<path d="M34.639 0.0227356C24.8612 0.0227356 16.1626 5.29268 10.1414 13.3075C4.12014 21.3261 0.556641 32.1445 0.556641 44C0.556641 55.8519 4.12014 66.6776 10.1414 74.6925C16.1626 82.711 24.8612 87.9773 34.639 87.9773C65.8055 87.9773 82.4188 70.7272 86.4746 52.5902C89.3223 50.5966 91.443 47.6501 91.443 44C91.443 40.3499 89.3261 37.4034 86.4708 35.4098C82.2029 16.8147 62.3329 0.0227356 34.639 0.0227356ZM34.639 7.35228C41.5918 7.35228 48.0448 11.0757 52.9829 17.6613C57.9211 24.2396 61.1476 33.5921 61.1476 44C61.1476 54.408 57.9211 63.7531 52.9829 70.3424C48.041 76.9207 41.5918 80.6477 34.639 80.6477C27.6862 80.6477 21.2333 76.9243 16.2951 70.3387C11.357 63.7605 8.1305 54.408 8.1305 44C8.1305 33.5921 11.357 24.2469 16.2951 17.6576C21.2371 11.0757 27.6862 7.35228 34.639 7.35228ZM58.7807 12.963C70.293 18.8633 77.6851 28.5677 79.4914 38.0448L79.8436 39.8771L81.6235 40.6797C82.9376 41.2661 83.8691 42.4975 83.8691 44C83.8691 45.5026 82.9376 46.7339 81.6197 47.3203L79.8474 48.1229L79.4914 49.9553C77.4768 60.5648 70.8648 70.9691 57.5954 76.5249C58.1142 75.9238 58.6482 75.3375 59.1367 74.6925C65.1579 66.674 68.7214 55.8555 68.7214 44C68.7214 32.1481 65.1579 21.3224 59.1367 13.3075C59.0307 13.1793 58.883 13.0913 58.7807 12.963ZM34.639 14.6818C31.9314 14.6818 29.3866 15.6273 27.0652 17.2032L34.7564 34.7208L42.5689 17.3131C40.1679 15.6163 37.4489 14.6818 34.639 14.6818ZM21.3848 23.0412C18.412 27.5488 16.3709 33.5957 15.8218 40.3352H28.9586L21.3848 23.0412ZM48.1319 23.3857L40.433 40.3352H53.4525C52.9223 33.7496 50.9948 27.8677 48.1243 23.3857H48.1319ZM15.818 47.6648C16.3481 54.2504 18.2757 60.1323 21.1424 64.6144L28.845 47.6648H15.818ZM40.3156 47.6648L47.8895 64.9588C50.8622 60.4512 52.9034 54.4043 53.4525 47.6648H40.3156ZM34.5178 53.2755L26.7054 70.6832C29.1025 72.3873 31.8253 73.3182 34.6352 73.3182C37.3429 73.3182 39.8877 72.3727 42.2091 70.7968L34.5178 53.2755Z" fill="#ECD24C"/>
</svg>
