<svg width="68" height="29" viewBox="0 0 68 29" fill="none" xmlns="http://www.w3.org/2000/svg">
<path d="M10.4848 13.8349C10.3148 13.6126 10.171 13.3707 10.0533 13.1092C9.93563 12.8346 9.81141 12.5077 9.68066 12.1286C9.6545 12.0632 9.57605 11.867 9.4453 11.5402C9.32762 11.2133 9.19033 10.9322 9.03342 10.6968C8.20968 10.8145 7.53629 10.8733 7.01328 10.8733C6.72562 10.8733 6.40527 10.8668 6.05224 10.8537C5.71228 10.8276 5.45731 10.8145 5.28733 10.8145C4.63356 10.7622 4.11054 10.736 3.71828 10.736C3.56138 10.9452 3.42409 11.1675 3.30641 11.4029C3.2018 11.6382 3.06451 11.9913 2.89453 12.462C2.65918 13.1419 2.45651 13.6257 2.28653 13.9133C2.16885 14.1095 1.94003 14.2075 1.60007 14.2075C1.31241 14.2075 1.04437 14.1487 0.795934 14.031C0.560577 13.9003 0.442899 13.7238 0.442899 13.5015C0.547502 13.0046 0.710944 12.4816 0.933225 11.9324C1.16858 11.3702 1.502 10.6249 1.93349 9.69653L2.71801 7.77445C3.1495 6.67612 3.54176 5.73469 3.8948 4.95017C4.26091 4.16565 4.73816 3.2373 5.32655 2.16512C5.40501 2.00821 5.53576 1.87746 5.71882 1.77285C5.90187 1.65517 6.10454 1.59634 6.32682 1.59634C6.57525 1.59634 6.75177 1.61595 6.85637 1.65518C6.97405 1.68133 7.06558 1.73363 7.13096 1.81208C7.19633 1.87746 7.2944 2.02129 7.42515 2.24357C7.86972 2.93656 8.2489 3.64917 8.56271 4.38139C8.88959 5.11361 9.30147 6.12696 9.79833 7.42142L10.2102 8.46091C10.5763 9.40234 10.8901 10.1934 11.1516 10.8341C11.4262 11.4617 11.727 12.037 12.0538 12.56C12.263 12.9 12.3676 13.1354 12.3676 13.2661C12.3676 13.5799 12.2696 13.8218 12.0735 13.9918C11.8904 14.1487 11.6485 14.2272 11.3478 14.2272C10.9686 14.2272 10.6809 14.0964 10.4848 13.8349ZM8.46464 9.08853C8.25544 8.64397 7.95471 7.87252 7.56244 6.77419C7.15711 5.5974 6.75177 4.66251 6.34643 3.96952C6.098 4.59714 5.73189 5.40781 5.2481 6.40154C4.92122 7.01608 4.54857 7.90521 4.13016 9.06892C4.96698 9.17352 5.86918 9.22582 6.83676 9.22582C7.52976 9.22582 8.07238 9.18006 8.46464 9.08853ZM17.9961 9.08853C18.0354 8.98393 18.1727 8.60474 18.408 7.95097C18.6564 7.2972 18.8853 6.80034 19.0945 6.46038C19.4344 5.92429 19.7352 5.65624 19.9967 5.65624C20.3628 5.65624 20.6439 5.72816 20.84 5.87199C21.0362 6.00274 21.1342 6.19233 21.1342 6.44076C21.1342 6.55844 21.0819 6.72189 20.9773 6.93109C20.8858 7.1403 20.8335 7.26451 20.8204 7.30374C20.2974 8.45437 19.8267 9.69 19.4083 11.0106L18.9964 12.5404C18.8395 13.0373 18.5715 13.4426 18.1923 13.7564C17.8131 14.0572 17.3685 14.2075 16.8586 14.2075C16.4009 14.2075 15.976 13.9983 15.5837 13.5799C15.3484 13.2138 15.0999 12.7496 14.8384 12.1874C14.59 11.6252 14.3743 11.076 14.1912 10.5399L13.5047 8.48052C13.3609 8.07519 13.2432 7.72869 13.1517 7.44103C13.0733 7.15337 13.034 6.89187 13.034 6.65651C13.021 6.38193 13.0994 6.15964 13.2694 5.98966C13.4394 5.81968 13.6747 5.73469 13.9755 5.73469C14.3154 5.73469 14.5573 5.80661 14.7011 5.95044C14.845 6.08119 14.9757 6.2904 15.0934 6.57806C15.1457 6.87879 15.2895 7.49333 15.5249 8.42169L15.6622 8.97085C15.7799 9.41541 15.9302 9.86651 16.1133 10.3242C16.2963 10.7818 16.4794 11.2198 16.6624 11.6382C16.6363 11.5729 16.7278 11.7886 16.937 12.2855C17.0678 11.9063 17.2182 11.4421 17.3881 10.8929L17.9961 9.08853ZM31.3528 13.1877C31.3528 13.4753 31.1959 13.7172 30.8821 13.9133C30.5813 14.1095 30.3002 14.2075 30.0387 14.2075C29.5419 14.2075 29.1431 14.1487 28.8423 14.031C28.5547 13.9003 28.2866 13.6649 28.0382 13.325C27.6982 13.6257 27.234 13.8545 26.6457 14.0114C26.0573 14.1552 25.5146 14.2272 25.0178 14.2272C24.2071 14.2272 23.5403 14.0114 23.0172 13.5799C22.4942 13.1354 22.2327 12.4881 22.2327 11.6382C22.2327 11.2721 22.3308 10.9387 22.5269 10.638C22.723 10.3242 22.9911 10.0496 23.331 9.81421C23.7102 9.56578 24.1417 9.37619 24.6255 9.24543C25.1093 9.10161 25.6127 9.02969 26.1357 9.02969C26.4103 9.02969 26.7372 9.08199 27.1164 9.1866C27.4956 9.2912 27.7898 9.40234 27.999 9.52002V9.20621C27.999 8.50014 27.829 8.01635 27.489 7.75484C27.1491 7.48026 26.5999 7.34297 25.8415 7.34297C25.6192 7.34297 25.397 7.38873 25.1747 7.48026C24.9655 7.57179 24.7236 7.696 24.449 7.85291C24.0829 8.04904 23.7364 8.1471 23.4095 8.1471C23.2918 8.1471 23.1807 8.06865 23.0761 7.91175C22.9715 7.74177 22.9192 7.5914 22.9192 7.46064C22.9192 7.08146 23.0957 6.75457 23.4487 6.47999C23.8148 6.20541 24.2463 6.00274 24.7432 5.87199C25.2401 5.72816 25.6846 5.65624 26.0769 5.65624C26.4691 5.65624 26.9202 5.73469 27.4302 5.8916C27.9401 6.03543 28.3585 6.2381 28.6854 6.4996C29.0777 6.83956 29.3784 7.23836 29.5876 7.696C29.8099 8.14056 29.921 8.63089 29.921 9.16698C29.921 9.33696 29.908 9.59193 29.8818 9.93189C29.8557 10.298 29.8426 10.6118 29.8426 10.8733C29.8426 10.991 29.8295 11.1675 29.8034 11.4029C29.7772 11.6905 29.7641 11.9193 29.7641 12.0893C29.7641 12.2462 29.823 12.3835 29.9407 12.5012C30.0583 12.6058 30.1956 12.6581 30.3525 12.6581L30.9017 12.6385C31.0455 12.6385 31.1567 12.6908 31.2351 12.7954C31.3136 12.9 31.3528 13.0308 31.3528 13.1877ZM25.0374 12.6777C25.5996 12.6777 26.0703 12.6189 26.4495 12.5012C26.8287 12.3835 27.2863 12.1678 27.8224 11.854C27.8747 11.6317 27.9074 11.3375 27.9205 10.9714C27.2014 10.6314 26.6064 10.4614 26.1357 10.4614C25.5996 10.4614 25.1224 10.5595 24.704 10.7556C24.2855 10.9518 24.0763 11.2983 24.0763 11.7951C24.0763 12.0436 24.1809 12.2528 24.3902 12.4228C24.5994 12.5927 24.8151 12.6777 25.0374 12.6777ZM32.4999 7.22529C32.3952 7.14684 32.3103 7.06838 32.2449 6.98993C32.1795 6.8984 32.1468 6.7415 32.1468 6.51922C32.1468 6.27079 32.2318 6.08119 32.4018 5.95044C32.5848 5.80661 32.794 5.73469 33.0294 5.73469C33.487 5.73469 33.8793 5.85237 34.2062 6.08773C34.5461 6.32309 34.7946 6.64997 34.9515 7.06838C35.2391 6.53229 35.6053 6.16618 36.0498 5.97005C36.4944 5.76085 37.1089 5.65624 37.8934 5.65624C38.2073 5.65624 38.5276 5.75431 38.8545 5.95044C39.1944 6.13349 39.5017 6.36231 39.7763 6.6369C39.9986 6.92455 40.1882 7.28413 40.3451 7.71561C40.502 8.13403 40.5804 8.51321 40.5804 8.85317C40.5804 9.0493 40.5674 9.36965 40.5412 9.81421C40.5151 10.2849 40.502 10.6576 40.502 10.9322C40.502 11.8474 40.6785 12.4097 41.0315 12.6189C41.0838 12.645 41.1819 12.6777 41.3257 12.7169C41.4696 12.7562 41.5742 12.7954 41.6395 12.8346C41.718 12.8739 41.7572 12.9327 41.7572 13.0111C41.7703 13.325 41.6526 13.5865 41.4042 13.7957C41.1688 13.9918 40.8812 14.0899 40.5412 14.0899C40.0313 14.0899 39.6325 13.9526 39.3448 13.678C39.0572 13.4034 38.8545 12.985 38.7368 12.4228C38.6714 12.2135 38.6387 11.9063 38.6387 11.5009C38.6387 11.2787 38.6518 10.9191 38.678 10.4222C38.7172 10.03 38.7368 9.61154 38.7368 9.16698C38.7368 8.70934 38.6061 8.31054 38.3445 7.97058C38.083 7.61755 37.7235 7.44103 37.2658 7.44103C36.9912 7.44103 36.7036 7.52602 36.4029 7.696C36.1021 7.85291 35.8929 8.04904 35.7752 8.28439C35.5791 8.68973 35.4483 9.10161 35.383 9.52002C35.2261 10.3307 35.1476 11.1087 35.1476 11.854C35.1476 12.037 35.1607 12.3901 35.1868 12.9131C35.1868 12.9523 35.1868 13.0504 35.1868 13.2073C35.1868 13.3511 35.1672 13.4884 35.128 13.6191C35.1019 13.7499 35.0495 13.8676 34.9711 13.9722C34.9188 14.0245 34.8207 14.0768 34.6769 14.1291C34.5331 14.1814 34.4089 14.2075 34.3043 14.2075C34.1212 14.2075 33.8924 14.1291 33.6178 13.9722C33.3432 13.8153 33.1798 13.6388 33.1275 13.4426L33.1079 13.168C33.1079 13.0634 33.1209 12.9065 33.1471 12.6973C33.304 11.7821 33.3824 10.9845 33.3824 10.3045C33.3824 10.0038 33.3759 9.77499 33.3628 9.61808L33.3432 8.71588C33.3432 8.4413 33.2648 8.17979 33.1079 7.93136C32.951 7.66985 32.7483 7.43449 32.4999 7.22529ZM43.1537 7.34297C42.9707 7.31682 42.8203 7.23836 42.7026 7.10761C42.598 6.97686 42.5457 6.81995 42.5457 6.6369C42.5457 6.54537 42.5653 6.4473 42.6046 6.3427C42.6569 6.2381 42.7288 6.14657 42.8203 6.06812C42.9903 5.92429 43.2191 5.787 43.5068 5.65624C43.8075 5.53856 44.0232 5.39473 44.154 5.22475C44.2848 5.05477 44.3501 4.73443 44.3501 4.26371C44.3501 4.06758 44.3371 3.8976 44.3109 3.75377C44.2978 3.60994 44.2913 3.4988 44.2913 3.42035C44.2913 3.13269 44.3959 2.91695 44.6051 2.77312C44.8143 2.62929 45.0562 2.55738 45.3308 2.55738C45.6707 2.55738 45.8996 2.64237 46.0172 2.81235C46.148 2.98233 46.2134 3.29614 46.2134 3.75377C46.2134 4.19834 46.1938 4.58406 46.1545 4.91095C46.1153 5.22475 46.0303 5.50588 45.8996 5.75431C46.0826 5.75431 46.3834 5.74123 46.8018 5.71508C47.3771 5.68893 47.7759 5.67586 47.9982 5.67586C48.2204 5.67586 48.4166 5.73469 48.5866 5.85237C48.7565 5.95698 48.8415 6.10734 48.8415 6.30347C48.8415 6.57806 48.7827 6.78072 48.665 6.91148C48.5473 7.04223 48.3773 7.12722 48.1551 7.16645C47.619 7.31028 46.8606 7.39527 45.8799 7.42142C45.8538 7.93136 45.8407 8.48706 45.8407 9.08853C45.8407 10.0953 45.8996 10.8668 46.0172 11.4029C46.0957 11.8213 46.2264 12.1286 46.4095 12.3247C46.6056 12.5077 46.8933 12.5993 47.2725 12.5993C47.4686 12.5993 47.6255 12.5731 47.7432 12.5208C47.8739 12.4685 47.9459 12.4358 47.9589 12.4228C48.1158 12.3312 48.2597 12.2855 48.3904 12.2855C48.5735 12.2855 48.7042 12.3443 48.7827 12.462C48.8742 12.5797 48.92 12.7366 48.92 12.9327C48.92 13.2988 48.7238 13.6061 48.3316 13.8545C47.9393 14.0899 47.4359 14.2075 46.8214 14.2075C46.1284 14.2075 45.54 14.0049 45.0562 13.5995C44.5855 13.1811 44.3044 12.632 44.2128 11.952C44.0821 11.3375 44.0167 10.4745 44.0167 9.36311C44.0167 8.87932 44.0429 8.23209 44.0952 7.42142L43.1537 7.34297ZM57.9415 14.2075C57.497 14.2075 57.157 14.1422 56.9217 14.0114C56.6863 13.8676 56.4313 13.6061 56.1567 13.2269C55.8168 13.5276 55.3068 13.7695 54.6269 13.9526C53.9601 14.1356 53.3848 14.2272 52.901 14.2272C52.1034 14.2272 51.4561 14.0114 50.9593 13.5799C50.4755 13.1354 50.2336 12.4881 50.2336 11.6382C50.2336 11.2721 50.3317 10.9387 50.5278 10.638C50.737 10.3242 51.005 10.0496 51.3319 9.81421C51.698 9.56578 52.1295 9.36965 52.6264 9.22582C53.1363 9.08199 53.6005 9.01008 54.0189 9.01008C54.725 9.01008 55.3526 9.07545 55.9018 9.20621V9.1866C55.9018 8.48052 55.7253 7.99674 55.3722 7.73523C55.0323 7.46064 54.4831 7.32335 53.7247 7.32335C53.2409 7.32335 52.8225 7.5391 52.4695 7.97058C52.3387 8.14056 52.0641 8.22555 51.6457 8.22555C51.4365 8.22555 51.2796 8.14056 51.175 7.97058C51.0835 7.78753 51.0377 7.60447 51.0377 7.42142C51.0377 7.04223 51.1946 6.71535 51.5084 6.44076C51.8353 6.16618 52.2276 5.96351 52.6852 5.83276C53.1429 5.68893 53.5678 5.61702 53.9601 5.61702C54.3393 5.61702 54.7904 5.69547 55.3134 5.85237C55.8364 6.00928 56.2613 6.21848 56.5882 6.47999C56.9805 6.81995 57.2812 7.21875 57.4904 7.67639C57.7127 8.12095 57.8239 8.61128 57.8239 9.14737C57.8239 9.31735 57.8108 9.57232 57.7846 9.91228C57.7585 10.3045 57.7454 10.6249 57.7454 10.8733C57.7454 10.991 57.7323 11.1414 57.7062 11.3244C57.68 11.5598 57.6669 11.7559 57.6669 11.9128C57.6669 12.0828 57.7192 12.2462 57.8239 12.4031C57.9285 12.56 58.0723 12.6908 58.2553 12.7954C58.4253 12.8869 58.5365 12.985 58.5888 13.0896C58.6411 13.1942 58.6672 13.3119 58.6672 13.4426C58.6672 13.5734 58.5822 13.7368 58.4122 13.933C58.2553 14.116 58.0984 14.2075 57.9415 14.2075ZM54.0189 10.4614C53.509 10.4614 53.0579 10.5595 52.6656 10.7556C52.2734 10.9518 52.0772 11.2983 52.0772 11.7951C52.0772 12.0436 52.1622 12.2528 52.3322 12.4228C52.5152 12.5927 52.7114 12.6777 52.9206 12.6777C53.4828 12.6777 53.9535 12.6189 54.3327 12.5012C54.7119 12.3835 55.1695 12.1678 55.7056 11.854C55.771 11.6448 55.8102 11.3506 55.8233 10.9714C55.8233 10.8276 55.8299 10.7164 55.8429 10.638C55.1369 10.5203 54.5289 10.4614 54.0189 10.4614Z" fill="#ECD24C"/>
<path d="M3.75751 27.423C3.71828 27.6191 3.6006 27.7891 3.40447 27.933C3.22142 28.0637 2.95991 28.1291 2.61995 28.1291C2.33229 28.1291 2.10347 28.0506 1.93349 27.8937C1.77659 27.7368 1.6916 27.5734 1.67852 27.4034C1.75697 26.8542 1.7962 26.0305 1.7962 24.9322C1.7962 24.2784 1.75697 23.2716 1.67852 21.9117C1.58699 20.6304 1.54123 19.4928 1.54123 18.4991C1.54123 17.963 1.56738 17.4138 1.61968 16.8516C1.61968 16.6685 1.72429 16.4724 1.93349 16.2632C2.15577 16.054 2.45651 15.9232 2.83569 15.8709C4.07785 15.7402 5.60114 15.6748 7.40554 15.6748H8.03316C8.50387 15.6748 8.96151 15.7598 9.40607 15.9298C9.86371 16.0997 10.0925 16.3939 10.0925 16.8123C10.0925 17.0869 10.0272 17.3027 9.8964 17.4596C9.76565 17.6165 9.52375 17.6949 9.17072 17.6949C9.00074 17.6949 8.8046 17.6819 8.58232 17.6557C8.36004 17.6296 8.20314 17.6099 8.11161 17.5969C7.61475 17.5184 7.22902 17.4792 6.95444 17.4792C5.43769 17.4792 4.2936 17.5838 3.52215 17.793C3.52215 18.2245 3.53523 18.924 3.56138 19.8916L3.58099 21.1468C4.26091 21.1468 4.86892 21.1207 5.40501 21.0684C5.9411 21.003 6.24837 20.9638 6.32682 20.9507C7.00674 20.8723 7.45784 20.833 7.68012 20.833C7.99393 20.833 8.25544 20.9049 8.46464 21.0488C8.68693 21.1795 8.79807 21.3887 8.79807 21.6764C8.79807 22.3302 8.34043 22.657 7.42515 22.657C7.20287 22.657 7.00674 22.6636 6.83676 22.6767C6.66678 22.6897 6.52295 22.7028 6.40527 22.7159C5.93456 22.7682 5.56191 22.7943 5.28733 22.7943C4.68586 22.7943 4.17592 22.8139 3.75751 22.8532C3.75751 23.337 3.77712 23.8469 3.81635 24.383C3.81635 24.553 3.82288 24.8145 3.83596 25.1675C3.86211 25.5206 3.87519 25.8409 3.87519 26.1286C3.87519 26.377 3.86865 26.6058 3.85557 26.815C3.8425 27.0242 3.80981 27.2269 3.75751 27.423ZM12.2244 15.5375C12.682 15.5767 13.0808 15.7009 13.4208 15.9101C13.7607 16.1063 13.9307 16.407 13.9307 16.8123C13.9307 17.1131 13.7869 17.355 13.4992 17.538C13.2246 17.708 12.8912 17.793 12.499 17.793C12.1198 17.793 11.8583 17.6949 11.7144 17.4988C11.5706 17.3027 11.4987 17.1 11.4987 16.8908C11.4987 16.4985 11.5379 16.1717 11.6164 15.9101C11.7079 15.6486 11.9106 15.5244 12.2244 15.5375ZM13.7934 24.2261V24.7949C13.7934 25.3048 13.8065 25.7886 13.8327 26.2462C13.8719 26.6908 13.9176 27.1419 13.9699 27.5995C13.9569 27.7303 13.8588 27.8676 13.6757 28.0114C13.4927 28.1422 13.3292 28.2075 13.1854 28.2075C12.937 28.2075 12.682 28.1618 12.4205 28.0703C12.1721 27.9656 12.0217 27.8414 11.9694 27.6976C11.891 27.2792 11.8517 26.9065 11.8517 26.5797C11.8517 25.5075 11.819 24.3045 11.7537 22.9709C11.7014 21.7941 11.6752 20.9703 11.6752 20.4996C11.6752 20.2642 11.7929 20.0616 12.0282 19.8916C12.2636 19.7216 12.512 19.6366 12.7735 19.6366C13.1527 19.6366 13.4142 19.7216 13.5581 19.8916C13.715 20.0616 13.7934 20.3296 13.7934 20.6957V24.2261ZM16.2423 21.343C16.0592 21.3168 15.9089 21.2384 15.7912 21.1076C15.6866 20.9769 15.6343 20.82 15.6343 20.6369C15.6343 20.5454 15.6539 20.4473 15.6931 20.3427C15.7454 20.2381 15.8173 20.1466 15.9089 20.0681C16.0789 19.8981 16.5365 19.8131 17.2818 19.8131C17.3864 19.3032 17.4387 18.7867 17.4387 18.2637C17.4387 18.0676 17.4322 17.8976 17.4191 17.7538C17.406 17.6099 17.3995 17.4988 17.3995 17.4204C17.3995 17.1327 17.5041 16.9169 17.7133 16.7731C17.9356 16.6293 18.184 16.5574 18.4586 16.5574C18.7985 16.5574 19.0274 16.6424 19.145 16.8123C19.2758 16.9823 19.3412 17.2961 19.3412 17.7538C19.3412 18.4337 19.2823 19.1005 19.1646 19.7543C19.3739 19.7543 19.6615 19.7412 20.0276 19.7151C20.5245 19.6889 20.8841 19.6759 21.1063 19.6759C21.3286 19.6759 21.5182 19.7347 21.6751 19.8524C21.8451 19.957 21.9301 20.1073 21.9301 20.3035C21.9301 20.8134 21.7013 21.1141 21.2436 21.2057C20.7598 21.3234 20.008 21.3953 18.9881 21.4214C18.9489 21.9314 18.9293 22.4871 18.9293 23.0885C18.9293 24.03 18.9881 24.8014 19.1058 25.4029C19.1843 25.8213 19.315 26.1286 19.4981 26.3247C19.6942 26.5077 19.9819 26.5993 20.361 26.5993C20.5833 26.5993 20.8121 26.5404 21.0475 26.4228C21.2044 26.3312 21.3482 26.2855 21.479 26.2855C21.662 26.2855 21.7928 26.3443 21.8713 26.462C21.9628 26.5797 22.0085 26.7366 22.0085 26.9327C22.0085 27.2988 21.8124 27.6061 21.4202 27.8545C21.0279 28.0899 20.5245 28.2075 19.9099 28.2075C19.5308 28.2075 19.145 28.116 18.7528 27.933C18.3736 27.7499 18.0532 27.5211 17.7917 27.2465C17.7525 27.2073 17.6806 27.0569 17.576 26.7954C17.4714 26.5339 17.3799 26.2528 17.3014 25.952C17.1707 25.3375 17.1053 24.4745 17.1053 23.3631C17.1053 22.8793 17.1314 22.2321 17.1837 21.4214L16.2423 21.343ZM23.4595 21.2253C23.3548 21.1468 23.2699 21.0684 23.2045 20.9899C23.1391 20.8984 23.1064 20.7415 23.1064 20.5192C23.1064 20.2708 23.1914 20.0812 23.3614 19.9504C23.5444 19.8066 23.7536 19.7347 23.989 19.7347C24.4466 19.7347 24.8389 19.8524 25.1658 20.0877C25.5057 20.3231 25.7542 20.65 25.9111 21.0684C26.1987 20.5323 26.5649 20.1662 27.0094 19.9701C27.454 19.7608 28.0685 19.6562 28.853 19.6562C29.1669 19.6562 29.4872 19.7543 29.8141 19.9504C30.154 20.1335 30.4613 20.3623 30.7359 20.6369C30.9582 20.9246 31.1478 21.2841 31.3047 21.7156C31.4616 22.134 31.54 22.5132 31.54 22.8532C31.54 23.0493 31.527 23.3697 31.5008 23.8142C31.4747 24.2849 31.4616 24.6576 31.4616 24.9322C31.4616 25.8474 31.6381 26.4097 31.9911 26.6189C32.0434 26.645 32.1415 26.6777 32.2853 26.7169C32.4292 26.7562 32.5338 26.7954 32.5991 26.8346C32.6776 26.8739 32.7168 26.9327 32.7168 27.0111C32.7299 27.325 32.6122 27.5865 32.3638 27.7957C32.1284 27.9918 31.8408 28.0899 31.5008 28.0899C30.9909 28.0899 30.5921 27.9526 30.3044 27.678C30.0168 27.4034 29.8141 26.985 29.6964 26.4228C29.631 26.2135 29.5983 25.9063 29.5983 25.5009C29.5983 25.2787 29.6114 24.9191 29.6376 24.4222C29.6768 24.03 29.6964 23.6115 29.6964 23.167C29.6964 22.7093 29.5657 22.3105 29.3041 21.9706C29.0426 21.6175 28.6831 21.441 28.2254 21.441C27.9508 21.441 27.6632 21.526 27.3625 21.696C27.0617 21.8529 26.8525 22.049 26.7348 22.2844C26.5387 22.6897 26.4079 23.1016 26.3426 23.52C26.1857 24.3307 26.1072 25.1087 26.1072 25.854C26.1072 26.037 26.1203 26.3901 26.1464 26.9131C26.1464 26.9523 26.1464 27.0504 26.1464 27.2073C26.1464 27.3511 26.1268 27.4884 26.0876 27.6191C26.0615 27.7499 26.0091 27.8676 25.9307 27.9722C25.8784 28.0245 25.7803 28.0768 25.6365 28.1291C25.4927 28.1814 25.3685 28.2075 25.2639 28.2075C25.0808 28.2075 24.852 28.1291 24.5774 27.9722C24.3028 27.8153 24.1394 27.6388 24.0871 27.4426L24.0675 27.168C24.0675 27.0634 24.0805 26.9065 24.1067 26.6973C24.2636 25.7821 24.342 24.9845 24.342 24.3045C24.342 24.0038 24.3355 23.775 24.3224 23.6181L24.3028 22.7159C24.3028 22.4413 24.2244 22.1798 24.0675 21.9314C23.9106 21.6699 23.7079 21.4345 23.4595 21.2253ZM33.878 23.6377C33.878 22.8401 34.0545 22.1798 34.4075 21.6568C34.7606 21.1207 35.2509 20.6173 35.8785 20.1466C36.0616 20.0158 36.3688 19.9047 36.8003 19.8131C37.2318 19.7085 37.611 19.6562 37.9379 19.6562C38.3301 19.6562 38.742 19.7412 39.1735 19.9112C39.6181 20.0681 39.9776 20.2512 40.2522 20.4604C40.736 20.8134 41.0694 21.2253 41.2525 21.696C41.4355 22.1536 41.5271 22.7028 41.5271 23.3435C41.5271 23.6181 41.3702 23.8861 41.0564 24.1476C40.7556 24.3961 40.4287 24.5203 40.0757 24.5203L39.3304 24.5007C38.9512 24.5007 38.4086 24.5137 37.7025 24.5399L37.2907 24.5595C37.003 24.5857 36.7872 24.5987 36.6434 24.5987C36.4342 24.5987 36.1466 24.5726 35.7804 24.5203C35.8327 25.1348 36.0616 25.6186 36.4669 25.9717C36.8722 26.3116 37.3103 26.4816 37.781 26.4816C38.6047 26.4816 39.18 26.3181 39.5069 25.9913C39.7815 25.7951 39.9646 25.6709 40.0561 25.6186C40.1476 25.5663 40.2915 25.5402 40.4876 25.5402C40.6968 25.5402 40.8798 25.6382 41.0367 25.8344C41.1937 26.0305 41.2721 26.2266 41.2721 26.4228C41.2721 26.645 41.1348 26.8739 40.8602 27.1092C40.5987 27.3315 40.2391 27.5668 39.7815 27.8153C39.5331 27.9199 39.1931 28.0114 38.7616 28.0899C38.3301 28.1683 37.9706 28.2075 37.6829 28.2075C37.2253 28.2075 36.7153 28.0768 36.1531 27.8153C35.5909 27.5407 35.1724 27.24 34.8979 26.9131C34.6233 26.5862 34.3814 26.122 34.1722 25.5206C33.976 24.9191 33.878 24.2915 33.878 23.6377ZM37.781 23.1081C38.7093 23.1081 39.3893 23.0755 39.8207 23.0101C39.7946 22.6309 39.6769 22.3236 39.4677 22.0883C39.2585 21.8398 38.9708 21.6306 38.6047 21.4606C38.487 21.4083 38.3824 21.3691 38.2909 21.343C38.1994 21.3168 38.0948 21.3037 37.9771 21.3037C37.3756 21.3037 36.8657 21.4672 36.4473 21.7941C36.042 22.121 35.8001 22.5394 35.7216 23.0493C36.3754 23.0885 37.0618 23.1081 37.781 23.1081ZM48.9528 23.6377C49.4758 23.9384 49.8419 24.2392 50.0511 24.5399C50.2603 24.8276 50.3649 25.2067 50.3649 25.6775C50.3649 26.1482 50.2276 26.5666 49.953 26.9327C49.6785 27.2857 49.3254 27.5603 48.8939 27.7564C48.5801 27.9003 48.1879 28.0114 47.7171 28.0899C47.2595 28.1683 46.8999 28.2075 46.6384 28.2075C46.1808 28.2075 45.6839 28.1226 45.1478 27.9526C44.6117 27.7826 44.1541 27.5407 43.7749 27.2269C43.4088 26.9131 43.2258 26.547 43.2258 26.1286C43.2258 25.867 43.3107 25.6644 43.4807 25.5206C43.6507 25.3636 43.873 25.2852 44.1476 25.2852C44.3698 25.2852 44.6052 25.4421 44.8536 25.7559C45.1021 26.0305 45.3897 26.2397 45.7166 26.3835C46.0566 26.5274 46.39 26.5993 46.7169 26.5993C47.959 26.5993 48.5801 26.3181 48.5801 25.7559C48.5801 25.6382 48.5409 25.5271 48.4624 25.4225C48.384 25.3048 48.3121 25.2264 48.2467 25.1871C48.129 25.0956 47.9656 25.0171 47.7564 24.9518C47.5472 24.8864 47.338 24.8341 47.1288 24.7949C46.9195 24.7426 46.7626 24.7033 46.658 24.6772C46.5534 24.651 46.3312 24.6053 45.9912 24.5399C45.6643 24.4745 45.3505 24.3634 45.0498 24.2065C44.5529 23.9711 44.1476 23.6835 43.8338 23.3435C43.533 23.0035 43.3827 22.5655 43.3827 22.0294C43.3827 21.7287 43.4546 21.428 43.5984 21.1272C43.7553 20.8134 43.9645 20.5781 44.226 20.4212C44.6183 20.1727 45.0498 19.9831 45.5205 19.8524C45.9912 19.7216 46.4292 19.6562 46.8346 19.6562C47.1614 19.6562 47.5276 19.6889 47.9329 19.7543C48.3513 19.8197 48.652 19.9112 48.8351 20.0289C49.175 20.2119 49.4235 20.4015 49.5804 20.5977C49.7373 20.7938 49.8157 21.0422 49.8157 21.343C49.8157 21.4868 49.7831 21.6306 49.7177 21.7745C49.6523 21.9052 49.5738 21.9967 49.4823 22.049C49.2731 22.1275 49.0901 22.1667 48.9332 22.1667C48.8155 22.1667 48.7174 22.1471 48.639 22.1079C48.5605 22.0556 48.4886 22.0033 48.4232 21.951C48.3709 21.8987 48.3382 21.866 48.3251 21.8529C48.1552 21.6699 47.9656 21.526 47.7564 21.4214C47.5472 21.3168 47.2399 21.2645 46.8346 21.2645C46.573 21.2645 46.3181 21.3037 46.0696 21.3822C45.8343 21.4476 45.6512 21.5326 45.5205 21.6372C45.4159 21.7156 45.344 21.7875 45.3047 21.8529C45.2655 21.9052 45.2459 21.9771 45.2459 22.0686C45.2459 22.4348 45.612 22.7028 46.3442 22.8728C47.0895 23.0428 47.4818 23.1343 47.521 23.1474C47.5995 23.1735 47.8152 23.2389 48.1682 23.3435C48.5344 23.4481 48.7959 23.5462 48.9528 23.6377ZM57.704 23.7161C57.8086 23.7815 58.0113 23.9057 58.312 24.0888C58.6258 24.2588 58.835 24.4614 58.9397 24.6968C59.0443 24.9322 59.0966 25.259 59.0966 25.6775C59.0966 26.1482 58.9593 26.5666 58.6847 26.9327C58.4101 27.2857 58.0571 27.5603 57.6256 27.7564C57.3118 27.9003 56.926 28.0114 56.4684 28.0899C56.0238 28.1683 55.6708 28.2075 55.4093 28.2075C55.1478 28.2075 54.8078 28.1683 54.3894 28.0899C53.9841 28.0114 53.703 27.9395 53.5461 27.8741C53.1407 27.6388 52.7877 27.3511 52.487 27.0111C52.1993 26.6712 52.0555 26.3247 52.0555 25.9717C52.0555 25.7101 52.1405 25.5075 52.3104 25.3636C52.4804 25.2067 52.7027 25.1283 52.9773 25.1283C53.108 25.1283 53.2453 25.1806 53.3892 25.2852C53.533 25.3767 53.631 25.4748 53.6833 25.5794C53.8272 25.9193 54.0691 26.1743 54.409 26.3443C54.749 26.5143 55.0955 26.5993 55.4485 26.5993C55.9062 26.5993 56.3311 26.5274 56.7234 26.3835C57.1156 26.2266 57.3118 26.0174 57.3118 25.7559C57.3118 25.6382 57.2791 25.5467 57.2137 25.4813C57.1614 25.4029 57.0829 25.3244 56.9783 25.246C56.7953 25.1152 56.5207 25.0106 56.1546 24.9322C55.7885 24.8406 55.5531 24.7818 55.4485 24.7556C54.9124 24.638 54.3894 24.4614 53.8795 24.2261C53.3695 23.9777 52.9642 23.6835 52.6635 23.3435C52.3627 23.0035 52.2124 22.5655 52.2124 22.0294C52.2124 21.6764 52.3431 21.3103 52.6046 20.9311C52.8661 20.5388 53.1603 20.2642 53.4872 20.1073C53.7226 20.0158 54.1148 19.9177 54.664 19.8131C55.2262 19.7085 55.6054 19.6562 55.8016 19.6562C56.1023 19.6562 56.4292 19.6889 56.7822 19.7543C57.1352 19.8066 57.4033 19.8981 57.5863 20.0289C57.9394 20.2381 58.227 20.4604 58.4493 20.6957C58.6716 20.918 58.7827 21.173 58.7827 21.4606C58.7827 21.6045 58.7501 21.7614 58.6847 21.9314C58.6193 22.0883 58.5409 22.1863 58.4493 22.2256C58.2532 22.3171 58.0244 22.3628 57.7629 22.3628C57.6452 22.3628 57.5471 22.3302 57.4687 22.2648C57.4033 22.1994 57.3118 22.0948 57.1941 21.951C57.0503 21.7287 56.913 21.5979 56.7822 21.5587C56.6253 21.5195 56.3965 21.4737 56.0958 21.4214C55.795 21.356 55.5924 21.3234 55.4878 21.3234C55.187 21.3234 54.8732 21.4083 54.5463 21.5783C54.2325 21.7483 54.0756 21.9444 54.0756 22.1667C54.0756 22.2844 54.1214 22.3759 54.2129 22.4413C54.3175 22.5067 54.4221 22.5655 54.5267 22.6178C54.6444 22.6701 54.7228 22.7028 54.7621 22.7159C55.0366 22.8466 55.3374 22.9578 55.6643 23.0493C56.0042 23.1408 56.2134 23.1997 56.2919 23.2258C56.998 23.3958 57.4687 23.5592 57.704 23.7161Z" fill="white"/>
</svg>
